<svg xmlns="http://www.w3.org/2000/svg" viewBox="0 0 500 500"><g id="freepik--smart-speaker--inject-64"><g id="freepik--smart-speaker--inject-64"><path d="M198.94,303.12c0-10.47-7-20.93-20.8-28.92-27.74-16-72.72-16-100.46,0-13.83,8-20.76,18.45-20.8,28.92h0v31.23h0c0,10.5,6.93,21,20.8,29,27.74,16,72.72,16,100.46,0,13.87-8,20.8-18.5,20.8-29h0V303.12Z" style="fill:#BA68C8"></path><path d="M198.94,303.12c0-10.47-7-20.93-20.8-28.92-27.74-16-72.72-16-100.46,0-13.83,8-20.76,18.45-20.8,28.92h0v31.23h0c0,10.5,6.93,21,20.8,29,27.74,16,72.72,16,100.46,0,13.87-8,20.8-18.5,20.8-29h0V303.12Z" style="fill:#BA68C8"></path><path d="M77.68,332.2c27.74,16,72.72,16,100.46,0s27.74-42,0-58-72.72-16-100.46,0S49.94,316.18,77.68,332.2Z" style="fill:#BA68C8"></path><path d="M77.68,332.2c27.74,16,72.72,16,100.46,0s27.74-42,0-58-72.72-16-100.46,0S49.94,316.18,77.68,332.2Z" style="opacity:0.30000000000000004"></path><path d="M179.24,362.68c-.36.22-.72.45-1.1.67-27.74,16-72.72,16-100.45,0C69.45,358.6,63.68,353,60.34,347V315.87c3.35,6,9.14,11.58,17.35,16.33.79.45,1.6.9,2.42,1.33l0,.12s1.35,25.44,28.31,33.32C144,377.38,177.16,363.58,179.24,362.68Z" style="opacity:0.1"></path><path d="M69.37,326.43a39,39,0,0,1-9-10.56V347a38.46,38.46,0,0,0,9,10.6Z" style="opacity:0.1"></path><path d="M187.53,271.89c0-6.61-5.51-13.57-15.1-19.11-11.54-6.66-27.77-10.48-44.52-10.48s-33,3.82-44.52,10.48c-9.6,5.54-15.1,12.5-15.1,19.11V303.2h0c0,6.61,5.51,13.57,15.1,19.11,11.54,6.66,27.77,10.49,44.52,10.49s33-3.83,44.52-10.49c9.6-5.54,15.1-12.5,15.1-19.11V271.89Z" style="fill:#263238"></path><path d="M172.43,291c-11.54,6.67-27.77,10.49-44.52,10.49s-33-3.82-44.52-10.49c-9.59-5.53-15.1-12.5-15.1-19.11V303.2c0,6.61,5.51,13.57,15.1,19.11,11.54,6.66,27.77,10.49,44.52,10.49s33-3.83,44.52-10.49c9.6-5.54,15.1-12.5,15.1-19.11V271.89C187.53,278.5,182,285.46,172.43,291ZM69.8,308.16a14.09,14.09,0,0,1-.87-3.13,18.8,18.8,0,0,0,.87,1.82Zm0-3.48a14.09,14.09,0,0,1-.87-3.13,17.75,17.75,0,0,0,.87,1.82Zm0-3.48a14.09,14.09,0,0,1-.87-3.13,17.75,17.75,0,0,0,.87,1.82Zm0-3.47a14.24,14.24,0,0,1-.87-3.13,18.65,18.65,0,0,0,.87,1.81Zm0-3.48a14.24,14.24,0,0,1-.87-3.13,18.65,18.65,0,0,0,.87,1.81Zm0-3.48a14.24,14.24,0,0,1-.87-3.13,18.8,18.8,0,0,0,.87,1.82Zm0-3.48a14.09,14.09,0,0,1-.87-3.13A18.8,18.8,0,0,0,69.8,286Zm0-3.48a14.09,14.09,0,0,1-.87-3.13,18.8,18.8,0,0,0,.87,1.82Zm0-3.48a14.09,14.09,0,0,1-.87-3.13A17.75,17.75,0,0,0,69.8,279ZM75.52,316a25.35,25.35,0,0,1-4.76-5.89v-1.68a28.17,28.17,0,0,0,4.76,5.38Zm0-3.48a25.35,25.35,0,0,1-4.76-5.89V305a28.43,28.43,0,0,0,4.76,5.37Zm0-3.48a25.35,25.35,0,0,1-4.76-5.89v-1.67a28.43,28.43,0,0,0,4.76,5.37Zm0-3.48a25.14,25.14,0,0,1-4.76-5.89V298a28.13,28.13,0,0,0,4.76,5.37Zm0-3.48a24.94,24.94,0,0,1-4.76-5.89v-1.67a28.47,28.47,0,0,0,4.76,5.38Zm0-3.47a25.18,25.18,0,0,1-4.76-5.9V291a28.47,28.47,0,0,0,4.76,5.38Zm0-3.48a25.18,25.18,0,0,1-4.76-5.9v-1.67a28.47,28.47,0,0,0,4.76,5.38Zm0-3.48a25.35,25.35,0,0,1-4.76-5.89v-1.68a28.47,28.47,0,0,0,4.76,5.38Zm0-3.48a25.35,25.35,0,0,1-4.76-5.89v-1.68A28.17,28.17,0,0,0,75.52,286ZM84,322.11l-.38-.21a45.36,45.36,0,0,1-7.16-5v-2.23a47.42,47.42,0,0,0,6.68,4.62c.28.17.58.32.86.48Zm0-3.48-.38-.21a45.36,45.36,0,0,1-7.16-5.05v-2.22a48.27,48.27,0,0,0,6.68,4.62l.86.47Zm0-3.48c-.13-.07-.26-.13-.38-.21a45.36,45.36,0,0,1-7.16-5.05v-2.22a48.27,48.27,0,0,0,6.68,4.62l.86.47Zm0-3.48c-.13-.07-.26-.13-.38-.21a45.36,45.36,0,0,1-7.16-5v-2.22a47.42,47.42,0,0,0,6.68,4.62l.86.47Zm0-3.47-.38-.21a46.71,46.71,0,0,1-7.16-5.05v-2.23a47.42,47.42,0,0,0,6.68,4.62l.86.47Zm0-3.48-.38-.21a45.36,45.36,0,0,1-7.16-5.05v-2.23a47.42,47.42,0,0,0,6.68,4.62l.86.47Zm0-3.48-.38-.21a45.36,45.36,0,0,1-7.16-5v-2.23a47.42,47.42,0,0,0,6.68,4.62l.86.47Zm0-3.48-.38-.21a45.36,45.36,0,0,1-7.16-5.05v-2.23a47.42,47.42,0,0,0,6.68,4.62c.28.17.58.32.86.48Zm0-3.48-.38-.21A45.36,45.36,0,0,1,76.47,289v-2.23a47.44,47.44,0,0,0,6.68,4.63l.86.47Zm7.36,31.37a64.32,64.32,0,0,1-6.41-3v-2.39a68.78,68.78,0,0,0,6.41,3Zm0-3.48a64.32,64.32,0,0,1-6.41-3v-2.39a68.78,68.78,0,0,0,6.41,3Zm0-3.48a62.16,62.16,0,0,1-6.41-3v-2.39a66.3,66.3,0,0,0,6.41,3Zm0-3.47a64.32,64.32,0,0,1-6.41-3v-2.4a66.3,66.3,0,0,0,6.41,3Zm0-3.48a64.32,64.32,0,0,1-6.41-3v-2.4a66.3,66.3,0,0,0,6.41,3Zm0-3.48a64.32,64.32,0,0,1-6.41-3v-2.4a66.3,66.3,0,0,0,6.41,3Zm0-3.48a64.32,64.32,0,0,1-6.41-3v-2.39a66.26,66.26,0,0,0,6.41,2.95Zm0-3.48a64.32,64.32,0,0,1-6.41-3v-2.39a68.78,68.78,0,0,0,6.41,3Zm0-3.48a64.32,64.32,0,0,1-6.41-3v-2.39a68.78,68.78,0,0,0,6.41,3Zm8.2,30.66c-2.51-.73-4.94-1.54-7.25-2.45v-2.45q3.48,1.34,7.25,2.4Zm0-3.48c-2.51-.72-4.94-1.54-7.25-2.45V320.1q3.48,1.33,7.25,2.41Zm0-3.48c-2.51-.72-4.94-1.54-7.25-2.44v-2.46Q95.8,318,99.57,319Zm0-3.48c-2.51-.72-4.94-1.54-7.25-2.44v-2.46q3.48,1.35,7.25,2.41Zm0-3.48c-2.51-.72-4.94-1.53-7.25-2.44v-2.46q3.48,1.35,7.25,2.41Zm0-3.48c-2.51-.72-4.94-1.53-7.25-2.44v-2.45q3.48,1.33,7.25,2.4Zm0-3.48c-2.51-.72-4.94-1.53-7.25-2.44v-2.45q3.48,1.34,7.25,2.4Zm0-3.47c-2.51-.73-4.94-1.54-7.25-2.45v-2.45q3.48,1.33,7.25,2.4Zm0-3.48c-2.51-.72-4.94-1.54-7.25-2.45v-2.45q3.48,1.33,7.25,2.41Zm8.87,29.9c-2.71-.5-5.36-1.1-7.92-1.8v-2.49c2.56.69,5.21,1.28,7.92,1.78Zm0-3.48c-2.71-.5-5.36-1.1-7.92-1.8v-2.49c2.56.69,5.21,1.28,7.92,1.78Zm0-3.48c-2.71-.5-5.36-1.1-7.92-1.8V319.3c2.56.69,5.21,1.29,7.92,1.78Zm0-3.47c-2.71-.51-5.36-1.11-7.92-1.81v-2.49c2.56.7,5.21,1.29,7.92,1.78Zm0-3.48c-2.71-.5-5.36-1.11-7.92-1.81v-2.49c2.56.7,5.21,1.29,7.92,1.78Zm0-3.48c-2.71-.5-5.36-1.1-7.92-1.81v-2.49c2.56.7,5.21,1.29,7.92,1.79Zm0-3.48c-2.71-.5-5.36-1.1-7.92-1.8v-2.5c2.56.7,5.21,1.29,7.92,1.79Zm0-3.48c-2.71-.5-5.36-1.1-7.92-1.8v-2.49c2.56.69,5.21,1.28,7.92,1.78Zm0-3.48c-2.71-.5-5.36-1.1-7.92-1.8v-2.49c2.56.69,5.21,1.28,7.92,1.78Zm9.35,29.12c-2.85-.26-5.66-.63-8.4-1.11v-2.51c2.74.47,5.55.84,8.4,1.1Zm0-3.48c-2.85-.26-5.66-.63-8.4-1.11v-2.51c2.74.47,5.55.84,8.4,1.1Zm0-3.47c-2.85-.27-5.66-.64-8.4-1.12v-2.51c2.74.48,5.55.84,8.4,1.1Zm0-3.48c-2.85-.27-5.66-.64-8.4-1.12v-2.51c2.74.48,5.55.84,8.4,1.1Zm0-3.48c-2.85-.27-5.66-.63-8.4-1.11V314.3c2.74.48,5.55.84,8.4,1.11Zm0-3.48c-2.85-.26-5.66-.63-8.4-1.11v-2.51c2.74.47,5.55.83,8.4,1.1Zm0-3.48c-2.85-.26-5.66-.63-8.4-1.11v-2.51c2.74.47,5.55.84,8.4,1.1Zm0-3.48c-2.85-.26-5.66-.63-8.4-1.11v-2.51c2.74.47,5.55.84,8.4,1.1Zm0-3.48c-2.85-.26-5.66-.63-8.4-1.11v-2.51c2.74.47,5.55.84,8.4,1.1Zm9.64,28.3c-2.92,0-5.83-.14-8.69-.38v-2.52c2.86.24,5.77.36,8.69.38Zm0-3.48c-2.92,0-5.83-.13-8.69-.37v-2.53c2.86.24,5.77.36,8.69.38Zm0-3.47c-2.92,0-5.83-.14-8.69-.38v-2.53c2.86.24,5.77.37,8.69.38Zm0-3.48c-2.92,0-5.83-.14-8.69-.38V319c2.86.24,5.77.37,8.69.38Zm0-3.48c-2.92,0-5.83-.14-8.69-.38v-2.53c2.86.24,5.77.37,8.69.38Zm0-3.48c-2.92,0-5.83-.14-8.69-.38V312c2.86.23,5.77.36,8.69.37Zm0-3.48c-2.92,0-5.83-.14-8.69-.38v-2.52c2.86.24,5.77.36,8.69.37Zm0-3.48c-2.92,0-5.83-.14-8.69-.38v-2.52c2.86.24,5.77.36,8.69.38Zm0-3.48c-2.92,0-5.83-.13-8.69-.37v-2.53c2.86.24,5.77.36,8.69.38Zm9.65,27.45c-2.86.24-5.77.37-8.69.38v-2.52c2.92,0,5.83-.14,8.69-.38Zm0-3.47c-2.86.24-5.77.36-8.69.37v-2.52c2.92,0,5.83-.14,8.69-.38Zm0-3.48c-2.86.24-5.77.36-8.69.38v-2.53c2.92,0,5.83-.14,8.69-.38Zm0-3.48c-2.86.24-5.77.36-8.69.38v-2.53c2.92,0,5.83-.14,8.69-.38Zm0-3.48c-2.86.24-5.77.37-8.69.38v-2.53c2.92,0,5.83-.14,8.69-.38Zm0-3.48c-2.86.24-5.77.37-8.69.38v-2.53c2.92,0,5.83-.14,8.69-.37Zm0-3.48c-2.86.24-5.77.37-8.69.38v-2.53c2.92,0,5.83-.13,8.69-.37Zm0-3.48c-2.86.24-5.77.37-8.69.38v-2.52c2.92,0,5.83-.14,8.69-.38Zm0-3.47c-2.86.24-5.77.36-8.69.37V302c2.92,0,5.83-.14,8.69-.38Zm9.35,26.62c-2.74.48-5.55.85-8.4,1.11v-2.52c2.85-.26,5.66-.63,8.4-1.1Zm0-3.48c-2.74.48-5.55.85-8.4,1.11v-2.52c2.85-.26,5.66-.63,8.4-1.1Zm0-3.48c-2.74.48-5.55.85-8.4,1.12v-2.53c2.85-.26,5.66-.62,8.4-1.1Zm0-3.48c-2.74.48-5.55.85-8.4,1.12v-2.53c2.85-.26,5.66-.62,8.4-1.1Zm0-3.47c-2.74.48-5.55.84-8.4,1.11v-2.52c2.85-.27,5.66-.63,8.4-1.11Zm0-3.48c-2.74.48-5.55.85-8.4,1.11v-2.52c2.85-.27,5.66-.63,8.4-1.1Zm0-3.48c-2.74.48-5.55.85-8.4,1.11v-2.52c2.85-.26,5.66-.63,8.4-1.1Zm0-3.48c-2.74.48-5.55.85-8.4,1.11V305c2.85-.26,5.66-.63,8.4-1.1Zm0-3.48c-2.74.48-5.55.85-8.4,1.11v-2.52c2.85-.26,5.66-.63,8.4-1.1Zm8.87,25.85c-2.56.7-5.21,1.3-7.92,1.8V328c2.71-.5,5.36-1.09,7.92-1.78Zm0-3.48c-2.56.7-5.21,1.3-7.92,1.8v-2.51c2.71-.5,5.36-1.09,7.92-1.78Zm0-3.48c-2.56.7-5.21,1.3-7.92,1.8v-2.51c2.71-.49,5.36-1.09,7.92-1.78Zm0-3.48c-2.56.7-5.21,1.3-7.92,1.81V317.6c2.71-.49,5.36-1.08,7.92-1.78Zm0-3.48c-2.56.7-5.21,1.31-7.92,1.81v-2.52c2.71-.49,5.36-1.08,7.92-1.78Zm0-3.48c-2.56.71-5.21,1.31-7.92,1.81v-2.51c2.71-.5,5.36-1.09,7.92-1.79Zm0-3.47c-2.56.7-5.21,1.3-7.92,1.8v-2.51c2.71-.5,5.36-1.09,7.92-1.79Zm0-3.48c-2.56.7-5.21,1.3-7.92,1.8v-2.51c2.71-.5,5.36-1.09,7.92-1.78Zm0-3.48c-2.56.7-5.21,1.3-7.92,1.8v-2.51c2.71-.5,5.36-1.09,7.92-1.78ZM163.5,326c-2.31.91-4.74,1.72-7.25,2.44V326q3.76-1.07,7.25-2.4Zm0-3.48c-2.31.91-4.74,1.73-7.25,2.45v-2.49q3.76-1.08,7.25-2.41Zm0-3.47c-2.31.9-4.74,1.72-7.25,2.44V319q3.76-1.06,7.25-2.41Zm0-3.48c-2.31.9-4.74,1.72-7.25,2.44v-2.49q3.76-1.07,7.25-2.41Zm0-3.48c-2.31.91-4.74,1.72-7.25,2.44v-2.49q3.76-1.06,7.25-2.41Zm0-3.48c-2.31.91-4.74,1.72-7.25,2.44v-2.49q3.76-1.06,7.25-2.41Zm0-3.48c-2.31.91-4.74,1.72-7.25,2.44v-2.49q3.76-1.07,7.25-2.4Zm0-3.48c-2.31.91-4.74,1.72-7.25,2.44v-2.49q3.76-1.06,7.25-2.4Zm0-3.48c-2.31.91-4.74,1.73-7.25,2.45v-2.49q3.76-1.08,7.25-2.41Zm7.36,24.43a64.32,64.32,0,0,1-6.41,3V323.2a68.78,68.78,0,0,0,6.41-3Zm0-3.48a64.32,64.32,0,0,1-6.41,3v-2.45a68.78,68.78,0,0,0,6.41-3Zm0-3.48a62.16,62.16,0,0,1-6.41,3v-2.45a66.3,66.3,0,0,0,6.41-3Zm0-3.47a64.32,64.32,0,0,1-6.41,3v-2.46a66.3,66.3,0,0,0,6.41-3Zm0-3.48a64.32,64.32,0,0,1-6.41,3v-2.46a66.3,66.3,0,0,0,6.41-3Zm0-3.48a64.32,64.32,0,0,1-6.41,3V305.8a66.3,66.3,0,0,0,6.41-3Zm0-3.48a64.32,64.32,0,0,1-6.41,3v-2.46a66.26,66.26,0,0,0,6.41-2.95Zm0-3.48a64.32,64.32,0,0,1-6.41,3v-2.45a68.78,68.78,0,0,0,6.41-3Zm0-3.48a64.32,64.32,0,0,1-6.41,3v-2.45a68.78,68.78,0,0,0,6.41-3Zm8.49,22.05a45.36,45.36,0,0,1-7.16,5l-.38.21v-2.39c.28-.16.58-.31.86-.48a47.42,47.42,0,0,0,6.68-4.62Zm0-3.48a45.36,45.36,0,0,1-7.16,5.05l-.38.21v-2.39l.86-.47a48.29,48.29,0,0,0,6.68-4.63Zm0-3.48a45.36,45.36,0,0,1-7.16,5.05c-.12.08-.25.14-.38.21v-2.39l.86-.47a48.27,48.27,0,0,0,6.68-4.62Zm0-3.48a45.36,45.36,0,0,1-7.16,5c-.12.08-.25.14-.38.21v-2.39l.86-.47a47.42,47.42,0,0,0,6.68-4.62Zm0-3.47a46.71,46.71,0,0,1-7.16,5.05l-.38.21v-2.4l.86-.47a47.42,47.42,0,0,0,6.68-4.62Zm0-3.48a45.36,45.36,0,0,1-7.16,5.05l-.38.21v-2.4l.86-.47a47.42,47.42,0,0,0,6.68-4.62Zm0-3.48a45.36,45.36,0,0,1-7.16,5l-.38.21v-2.4l.86-.47a47.42,47.42,0,0,0,6.68-4.62Zm0-3.48a45.36,45.36,0,0,1-7.16,5.05l-.38.21v-2.39c.28-.16.58-.31.86-.48a47.42,47.42,0,0,0,6.68-4.62Zm0-3.48a45.36,45.36,0,0,1-7.16,5.05l-.38.21v-2.39l.86-.47a48.29,48.29,0,0,0,6.68-4.63Zm5.72,21.08A25.67,25.67,0,0,1,180.3,316V313.8a28.9,28.9,0,0,0,4.77-5.38Zm0-3.48a25.67,25.67,0,0,1-4.77,5.89v-2.19a28.59,28.59,0,0,0,4.77-5.38Zm0-3.48A25.67,25.67,0,0,1,180.3,309v-2.19a28.86,28.86,0,0,0,4.77-5.37Zm0-3.48a25.67,25.67,0,0,1-4.77,5.89v-2.19a28.86,28.86,0,0,0,4.77-5.37Zm0-3.48a25.25,25.25,0,0,1-4.77,5.89v-2.19a28.54,28.54,0,0,0,4.77-5.37Zm0-3.48a25.5,25.5,0,0,1-4.77,5.9v-2.19a28.9,28.9,0,0,0,4.77-5.38Zm0-3.48a25.5,25.5,0,0,1-4.77,5.9v-2.19a28.9,28.9,0,0,0,4.77-5.38Zm0-3.47a25.67,25.67,0,0,1-4.77,5.89v-2.19a28.9,28.9,0,0,0,4.77-5.38Zm1-6.73a17.75,17.75,0,0,0,.87-1.82,14.09,14.09,0,0,1-.87,3.13Zm0,3.48a18.8,18.8,0,0,0,.87-1.82,14.09,14.09,0,0,1-.87,3.13Zm0,3.48a18.8,18.8,0,0,0,.87-1.82,14.09,14.09,0,0,1-.87,3.13Zm0,3.47a17.6,17.6,0,0,0,.87-1.81,14.24,14.24,0,0,1-.87,3.13Zm0,3.48a18.65,18.65,0,0,0,.87-1.81,14.24,14.24,0,0,1-.87,3.13Zm0,3.48a18.65,18.65,0,0,0,.87-1.81,14,14,0,0,1-.87,3.12Zm0,3.48a17.75,17.75,0,0,0,.87-1.82,14.09,14.09,0,0,1-.87,3.13Zm0,3.48a17.75,17.75,0,0,0,.87-1.82,14.09,14.09,0,0,1-.87,3.13Zm0,3.48a18.8,18.8,0,0,0,.87-1.82,14.09,14.09,0,0,1-.87,3.13Zm-1-26.26v1.68a25.67,25.67,0,0,1-4.77,5.89V286A28.59,28.59,0,0,0,185.07,280.59Z" style="fill:#455a64"></path><path d="M198.94,189.36c0-14.8-15.9-32.77-35.51-40.15s-51.42-7.38-71,0-35.51,25.35-35.51,40.15v82.53c0,10.5,6.93,21,20.8,29,27.74,16,72.72,16,100.46,0,13.87-8,20.8-18.51,20.8-29h0V216.15h0Z" style="fill:#BA68C8"></path><path d="M80.13,220.15c26.39,17,69.17,17,95.56,0s26.39-44.58,0-61.59-69.17-17-95.56,0S53.74,203.14,80.13,220.15Z" style="fill:#fff;opacity:0.30000000000000004"></path><path d="M83.22,215.34c24.68,15.91,64.7,15.91,89.38,0s24.68-41.7,0-57.6-64.7-15.91-89.38,0S58.54,199.43,83.22,215.34Z" style="fill:#fff;opacity:0.30000000000000004"></path><path d="M172.77,303.7l-10.15-1.54a98.49,98.49,0,0,1-82.49-82h0c-13.22-8.52-19.82-19.69-19.79-30.86v95.24c3.34,6,9.11,11.61,17.34,16.37C103.7,315.92,144.87,316.85,172.77,303.7Z" style="opacity:0.1"></path><path d="M69.37,211.11c-6-6.73-9.05-14.28-9-21.82v95.24a38.6,38.6,0,0,0,9,10.6Z" style="opacity:0.1"></path><path d="M143.3,187.6v-2.8h-.75a10.36,10.36,0,0,0-4.05-3.89c-6.41-3.69-16.78-3.69-23.19,0a10.36,10.36,0,0,0-4,3.89h-.75v2.8h0c0,2.43,1.6,4.85,4.8,6.7,6.4,3.69,16.78,3.69,23.18,0C141.7,192.45,143.3,190,143.3,187.6Z" style="fill:#37474f"></path><path d="M115.31,191.49c-6.4-3.7-6.4-9.69,0-13.39s16.78-3.69,23.19,0,6.4,9.69,0,13.39S121.71,195.18,115.31,191.49Z" style="fill:#455a64"></path><path d="M126.82,189.94a12,12,0,0,1-5.9-1.43c-2.48-1.43-3.34-3.67-2.17-5.68a.81.81,0,0,1,1.4.8c-.7,1.21-.11,2.51,1.58,3.48a11.27,11.27,0,0,0,10.18,0,2.57,2.57,0,0,0,0-4.94,11.17,11.17,0,0,0-7.23-1,.81.81,0,1,1-.28-1.59,12.89,12.89,0,0,1,8.32,1.21c1.72,1,2.68,2.37,2.68,3.87s-1,2.87-2.68,3.87A12,12,0,0,1,126.82,189.94Z" style="fill:#BA68C8"></path><path d="M125.24,184.54a.86.86,0,0,1-.4-.11l-6.21-3.58a.81.81,0,0,1-.29-1.11.8.8,0,0,1,1.1-.29l6.21,3.58a.82.82,0,0,1,.3,1.11A.84.84,0,0,1,125.24,184.54Z" style="fill:#BA68C8"></path><path d="M153.36,176.17v-2.72h-.24a3.14,3.14,0,0,0-1.26-1.21,8,8,0,0,0-7.25,0,3.14,3.14,0,0,0-1.26,1.21h-.24v2.72h0a2.56,2.56,0,0,0,1.5,2.09,8,8,0,0,0,7.25,0A2.56,2.56,0,0,0,153.36,176.17Z" style="fill:#37474f"></path><path d="M144.61,175.54c-2-1.15-2-3,0-4.18a8,8,0,0,1,7.25,0c2,1.15,2,3,0,4.18A8,8,0,0,1,144.61,175.54Z" style="fill:#455a64"></path><path d="M112.71,199.63v-2.72h-.23a3.24,3.24,0,0,0-1.27-1.21,8,8,0,0,0-7.25,0,3.2,3.2,0,0,0-1.26,1.21h-.24v2.72h0a2.56,2.56,0,0,0,1.5,2.09,8,8,0,0,0,7.25,0A2.56,2.56,0,0,0,112.71,199.63Z" style="fill:#37474f"></path><path d="M104,199c-2-1.15-2-3,0-4.18a8,8,0,0,1,7.25,0c2,1.16,2,3,0,4.18A8,8,0,0,1,104,199Z" style="fill:#455a64"></path><path d="M171.31,260l11.78-6.8a1.45,1.45,0,0,0,.55-1.17v-6.71c0-2.75-.72-4.81-1.88-5.93s-2.78-1.31-4.56-.28c-3.56,2.06-6.45,8.17-6.45,13.65v6.71C170.75,259.94,171,260.18,171.31,260Z" style="fill:#37474f"></path><path d="M183.06,255.19,171.34,262a1.48,1.48,0,0,0-.56,1.26c.31,4.86,3.06,7.23,6.42,5.29s6.11-7.49,6.42-12.7C183.65,255.29,183.39,255,183.06,255.19Z" style="fill:#37474f"></path><path d="M178.12,272c5.76-3.36,9.07-10.17,9.07-18.68a.91.91,0,1,0-1.81,0c0,7.85-3,14.09-8.18,17.11a4.27,4.27,0,0,1-4.27.37c-1.94-1-3.23-3.86-3.46-7.55a.92.92,0,0,0-1-.85.91.91,0,0,0-.84,1c.27,4.38,1.88,7.68,4.42,9a5.43,5.43,0,0,0,2.55.64,6,6,0,0,0,1.66-.25v5.7l-2.53,1.46a.91.91,0,0,0-.33,1.24.9.9,0,0,0,.78.45,1,1,0,0,0,.46-.12l6-3.44a.91.91,0,0,0-.91-1.58l-1.62.94V272Z" style="fill:#37474f"></path></g></g><g id="freepik--Audio--inject-64"><g id="freepik--audio--inject-64"><path d="M30.43,137.67a1,1,0,0,1-1-1v-3.49a1,1,0,0,1,2,0v3.49A1,1,0,0,1,30.43,137.67Z" style="fill:#BA68C8"></path><path d="M35.45,144.62a1,1,0,0,1-1-1V120.43a1,1,0,0,1,2,0v23.19A1,1,0,0,1,35.45,144.62Z" style="fill:#BA68C8"></path><path d="M40.47,136.48a1,1,0,0,1-1-1V122.77a1,1,0,0,1,2,0v12.71A1,1,0,0,1,40.47,136.48Z" style="fill:#BA68C8"></path><path d="M45.49,145.8a1,1,0,0,1-1-1V107.66a1,1,0,0,1,2,0V144.8A1,1,0,0,1,45.49,145.8Z" style="fill:#BA68C8"></path><path d="M50.51,127.29a1,1,0,0,1-1-1v-5.93a1,1,0,0,1,2,0v5.93A1,1,0,0,1,50.51,127.29Z" style="fill:#BA68C8"></path><path d="M55.53,128.9a1,1,0,0,1-1-1V113a1,1,0,0,1,2,0V127.9A1,1,0,0,1,55.53,128.9Z" style="fill:#BA68C8"></path><path d="M60.55,136.8a1,1,0,0,1-1-1V99.27a1,1,0,0,1,2,0V135.8A1,1,0,0,1,60.55,136.8Z" style="fill:#BA68C8"></path><path d="M60.55,136.8a1,1,0,0,1-1-1V99.27a1,1,0,0,1,2,0V135.8A1,1,0,0,1,60.55,136.8Z" style="fill:#fff;opacity:0.5"></path><path d="M65.57,130.14a1,1,0,0,1-1-1v-29a1,1,0,0,1,2,0v29A1,1,0,0,1,65.57,130.14Z" style="fill:#BA68C8"></path><path d="M70.59,133.62a1,1,0,0,1-1-1V90.85a1,1,0,0,1,2,0v41.77A1,1,0,0,1,70.59,133.62Z" style="fill:#BA68C8"></path><path d="M75.61,119.86a1,1,0,0,1-1-1v-20a1,1,0,0,1,2,0v20A1,1,0,0,1,75.61,119.86Z" style="fill:#BA68C8"></path><path d="M80.63,109.33a1,1,0,0,1-1-1v-4.78a1,1,0,0,1,2,0v4.78A1,1,0,0,1,80.63,109.33Z" style="fill:#BA68C8"></path><path d="M85.65,109.13a1,1,0,0,1-1-1V97.94a1,1,0,0,1,2,0v10.19A1,1,0,0,1,85.65,109.13Z" style="fill:#BA68C8"></path><path d="M90.67,114.85a1,1,0,0,1-1-1V86.43a1,1,0,0,1,2,0v27.42A1,1,0,0,1,90.67,114.85Z" style="fill:#BA68C8"></path><path d="M95.69,126.6a1,1,0,0,1-1-1V68.88a1,1,0,0,1,2,0V125.6A1,1,0,0,1,95.69,126.6Z" style="fill:#BA68C8"></path><path d="M100.71,116.16a1,1,0,0,1-1-1V73.53a1,1,0,0,1,2,0v41.63A1,1,0,0,1,100.71,116.16Z" style="fill:#BA68C8"></path><path d="M105.73,102.15a1,1,0,0,1-1-1V81.74a1,1,0,0,1,2,0v19.41A1,1,0,0,1,105.73,102.15Z" style="fill:#BA68C8"></path><path d="M110.75,92.51a1,1,0,0,1-1-1V85.58a1,1,0,1,1,2,0v5.93A1,1,0,0,1,110.75,92.51Z" style="fill:#BA68C8"></path><path d="M160.84,62.37a1,1,0,0,1-1-1V57.89a1,1,0,0,1,2,0v3.48A1,1,0,0,1,160.84,62.37Z" style="fill:#BA68C8"></path><path d="M155.82,75.12a1,1,0,0,1-1-1V50.94a1,1,0,0,1,2,0V74.12A1,1,0,0,1,155.82,75.12Z" style="fill:#BA68C8"></path><path d="M150.8,72.78a1,1,0,0,1-1-1V59.08a1,1,0,1,1,2,0v12.7A1,1,0,0,1,150.8,72.78Z" style="fill:#BA68C8"></path><path d="M145.78,87.9a1,1,0,0,1-1-1V49.75a1,1,0,0,1,2,0V86.9A1,1,0,0,1,145.78,87.9Z" style="fill:#BA68C8"></path><path d="M140.76,75.19a1,1,0,0,1-1-1V68.26a1,1,0,1,1,2,0v5.93A1,1,0,0,1,140.76,75.19Z" style="fill:#BA68C8"></path><path d="M135.74,82.59a1,1,0,0,1-1-1V66.66a1,1,0,0,1,2,0V81.59A1,1,0,0,1,135.74,82.59Z" style="fill:#BA68C8"></path><path d="M130.71,96.29a1,1,0,0,1-1-1V58.76a1,1,0,1,1,2,0V95.29A1,1,0,0,1,130.71,96.29Z" style="fill:#BA68C8"></path><path d="M125.69,95.42a1,1,0,0,1-1-1v-29a1,1,0,0,1,2,0v29A1,1,0,0,1,125.69,95.42Z" style="fill:#BA68C8"></path><path d="M120.67,104.7a1,1,0,0,1-1-1V61.93a1,1,0,1,1,2,0V103.7A1,1,0,0,1,120.67,104.7Z" style="fill:#BA68C8"></path><path d="M70.59,133.62a1,1,0,0,1-1-1V90.85a1,1,0,0,1,2,0v41.77A1,1,0,0,1,70.59,133.62Z" style="fill:#fff;opacity:0.7000000000000001"></path><path d="M100.71,116.16a1,1,0,0,1-1-1V73.53a1,1,0,0,1,2,0v41.63A1,1,0,0,1,100.71,116.16Z" style="fill:#fff;opacity:0.7000000000000001"></path><path d="M120.67,104.7a1,1,0,0,1-1-1V61.93a1,1,0,1,1,2,0V103.7A1,1,0,0,1,120.67,104.7Z" style="fill:#fff;opacity:0.7000000000000001"></path><path d="M115.65,94.5a1,1,0,0,1-1-1V77.93a1,1,0,0,1,2,0V93.5A1,1,0,0,1,115.65,94.5Z" style="fill:#BA68C8"></path><path d="M110.63,92a1,1,0,0,1-1-1V86.23a1,1,0,0,1,2,0V91A1,1,0,0,1,110.63,92Z" style="fill:#BA68C8"></path><path d="M45.49,145.8a1,1,0,0,1-1-1V107.66a1,1,0,0,1,2,0V144.8A1,1,0,0,1,45.49,145.8Z" style="fill:#fff;opacity:0.5"></path><path d="M85.65,109.13a1,1,0,0,1-1-1V97.94a1,1,0,0,1,2,0v10.19A1,1,0,0,1,85.65,109.13Z" style="fill:#fff;opacity:0.5"></path><path d="M95.69,126.6a1,1,0,0,1-1-1V68.88a1,1,0,0,1,2,0V125.6A1,1,0,0,1,95.69,126.6Z" style="fill:#fff;opacity:0.5"></path><path d="M105.73,102.15a1,1,0,0,1-1-1V81.74a1,1,0,0,1,2,0v19.41A1,1,0,0,1,105.73,102.15Z" style="fill:#fff;opacity:0.5"></path><path d="M145.78,87.9a1,1,0,0,1-1-1V49.75a1,1,0,0,1,2,0V86.9A1,1,0,0,1,145.78,87.9Z" style="fill:#fff;opacity:0.5"></path><path d="M125.69,95.42a1,1,0,0,1-1-1v-29a1,1,0,0,1,2,0v29A1,1,0,0,1,125.69,95.42Z" style="fill:#fff;opacity:0.5"></path></g></g><g id="freepik--Window--inject-64"><g id="freepik--window--inject-64"><polygon points="469.98 194.84 465.24 197.57 346.84 129.21 351.57 126.48 469.98 194.84" style="fill:#fafafa"></polygon><polygon points="351.57 126.48 465.24 192.1 465.24 113.33 351.58 47.7 351.57 126.48" style="fill:#BA68C8"></polygon><g style="opacity:0.8"><polygon points="351.57 126.48 465.24 192.1 465.24 113.33 351.58 47.7 351.57 126.48" style="fill:#fff"></polygon></g><polygon points="406.04 76.42 406.04 160.66 401.3 157.93 401.3 73.68 406.04 76.42" style="fill:#f0f0f0"></polygon><polygon points="408.41 75.04 406.04 76.42 406.04 160.66 408.41 159.29 408.41 75.04" style="fill:#e0e0e0"></polygon><polygon points="406.04 76.42 401.3 73.68 403.67 72.31 408.41 75.04 406.04 76.42" style="fill:#fff"></polygon><path d="M342.1,132,470,205.78V110.59L342.1,36.76Zm4.74-87,118.4,68.35v84.25l-118.4-68.36Z" style="fill:#f0f0f0"></path><polygon points="346.84 129.21 351.57 126.48 351.58 47.7 346.84 44.97 346.84 129.21" style="fill:#e0e0e0"></polygon><polygon points="342.1 36.76 346.84 34.03 474.72 107.86 469.98 110.59 342.1 36.76" style="fill:#fafafa"></polygon><polygon points="474.72 107.86 469.98 110.59 469.98 205.78 474.71 203.04 474.72 107.86" style="fill:#e0e0e0"></polygon><polygon points="406.04 79.14 401.32 76.42 401.32 79.15 406.04 81.88 406.04 79.14" style="fill:#e0e0e0"></polygon><polygon points="406.04 81.88 408.41 80.51 406.04 79.14 406.04 81.88" style="opacity:0.15"></polygon></g></g><g id="freepik--Lamp--inject-64"><g id="freepik--lamp--inject-64"><g id="freepik--lamp--inject-64"><path d="M265.42,252.63c8.52,4.92,8.52,12.89,0,17.81s-22.32,4.92-30.84,0-8.52-12.89,0-17.81S256.9,247.71,265.42,252.63Z" style="fill:#37474f"></path><path d="M228.19,261.54h0c0-3.23,2.11-6.45,6.37-8.91,8.52-4.92,22.32-4.92,30.84,0,4.26,2.46,6.37,5.68,6.37,8.91h0v3h0c-.05,3.18-2.19,6.35-6.39,8.78-8.52,4.91-22.32,4.91-30.84,0-4.2-2.43-6.34-5.6-6.39-8.78h0Z" style="fill:#263238"></path><path d="M265.42,252.63c8.52,4.92,8.52,12.89,0,17.81s-22.32,4.92-30.84,0-8.52-12.89,0-17.81S256.9,247.71,265.42,252.63Z" style="fill:#37474f"></path><path d="M247.65,130.52h4.7V260.13h0a1.09,1.09,0,0,1-.67,1.07,3.66,3.66,0,0,1-3.32,0,1.09,1.09,0,0,1-.67-1.07h0Z" style="fill:#455a64"></path><path d="M219.37,126.05h0l7.55-36.14h46.2l7.55,36.14h0c2.06,5.75-.77,12-8.5,16.44-12.22,7-32,7-44.26,0C220.14,138,217.31,131.8,219.37,126.05Z" style="fill:#BA68C8"></path><path d="M219.37,126.05h0l7.55-36.14h46.2l7.55,36.14h0c2.06,5.75-.77,12-8.5,16.44-12.22,7-32,7-44.26,0C220.14,138,217.31,131.8,219.37,126.05Z" style="opacity:0.2"></path><path d="M266.42,100.77c-9.07,5.24-23.77,5.24-32.84,0s-9.07-13.72,0-19,23.77-5.23,32.84,0S275.49,95.54,266.42,100.77Z" style="fill:#BA68C8"></path><path d="M266.42,100.77c-9.07,5.24-23.77,5.24-32.84,0s-9.07-13.72,0-19,23.77-5.23,32.84,0S275.49,95.54,266.42,100.77Z" style="fill:#BA68C8"></path><path d="M250,101.41A29,29,0,0,0,264.23,98c3.32-1.92,5.15-4.31,5.15-6.75s-1.83-4.83-5.15-6.74a31.73,31.73,0,0,0-28.46,0c-3.32,1.91-5.15,4.31-5.15,6.74s1.83,4.83,5.15,6.75A29,29,0,0,0,250,101.41Z" style="fill:#BA68C8"></path><path d="M250,101.41A29,29,0,0,0,264.23,98c3.32-1.92,5.15-4.31,5.15-6.75s-1.83-4.83-5.15-6.74a31.73,31.73,0,0,0-28.46,0c-3.32,1.91-5.15,4.31-5.15,6.74s1.83,4.83,5.15,6.75A29,29,0,0,0,250,101.41Z" style="opacity:0.35000000000000003"></path></g><path d="M276.65,58.77a1.27,1.27,0,0,1-1.06-.58,30.36,30.36,0,0,0-51.13-.11,1.25,1.25,0,0,1-2.1-1.36,32.87,32.87,0,0,1,55.34.12,1.26,1.26,0,0,1-.38,1.73A1.27,1.27,0,0,1,276.65,58.77Z" style="fill:#BA68C8"></path><path d="M271.24,62.73a1.22,1.22,0,0,1-1.06-.6,23.67,23.67,0,0,0-40.33-.07,1.25,1.25,0,1,1-2.12-1.32,26.17,26.17,0,0,1,44.58.08,1.26,1.26,0,0,1-.41,1.72A1.23,1.23,0,0,1,271.24,62.73Z" style="fill:#BA68C8"></path><path d="M265.84,66.69a1.25,1.25,0,0,1-1.09-.63,17,17,0,0,0-29.5,0,1.25,1.25,0,1,1-2.16-1.24,19.48,19.48,0,0,1,33.83,0,1.25,1.25,0,0,1-.46,1.7A1.19,1.19,0,0,1,265.84,66.69Z" style="fill:#BA68C8"></path><path d="M239.55,70.65a1.17,1.17,0,0,1-.55-.13,1.25,1.25,0,0,1-.57-1.67,12.88,12.88,0,0,1,23.12,0,1.25,1.25,0,0,1-.57,1.67,1.24,1.24,0,0,1-1.67-.57,10.39,10.39,0,0,0-18.64,0A1.26,1.26,0,0,1,239.55,70.65Z" style="fill:#BA68C8"></path></g></g><g id="freepik--Character--inject-64"><g id="freepik--character--inject-64"><g id="freepik--character--inject-64"><path d="M272.2,313.89h0a11.23,11.23,0,0,0,5.45,11.58l63.86,33.29.19,3.68,2.91,1.68-3.75,2.16-70.59-40.87Z" style="fill:#37474f"></path><path d="M338.87,382.52h0c.41-4.91-1.33-9.84-5.6-12.31L275.72,337a5.4,5.4,0,0,0-8,3.78h0l3.84-22.9h0a11,11,0,0,0,5.34,11.34l59.58,34.43a2.85,2.85,0,0,0,4.47-2.33l.3-3.16Z" style="fill:#455a64"></path><path d="M337.62,225.31l16.32,9.43-69.59,44a18.52,18.52,0,0,0-8.37,12.6L265.84,357a1.14,1.14,0,0,1-1.69.8h0c-.38-.22-.6-.64-.46-2.24l5.79-69.73c.33-3.94,2.84-8.64,6.85-11.82Z" style="fill:#455a64"></path><path d="M413.18,311.9l.4.92a7.13,7.13,0,0,1-3,9l-64.17,37.05,1.61-9.6-2.41,14.4L417.55,322Z" style="fill:#263238"></path><path d="M413.18,311.9l.15.67a5.36,5.36,0,0,1-7.63,6.8L403,317.79l-3.64,2.11,14.95,8.64,4.74-3.16Z" style="fill:#263238"></path><path d="M344.85,359.77l61.52-35.55a8.58,8.58,0,0,0,3.89-6.73v-3.63a8.58,8.58,0,0,0-3.89-6.73l-61.52-35.52a8.6,8.6,0,0,0-7.78,0l-61.52,35.52a8.58,8.58,0,0,0-3.89,6.73v3.67a8.6,8.6,0,0,0,3.89,6.74l61.52,35.5A8.6,8.6,0,0,0,344.85,359.77Z" style="fill:#BA68C8"></path><path d="M344.85,359.77l61.52-35.55a8.58,8.58,0,0,0,3.89-6.73v-3.63a8.58,8.58,0,0,0-3.89-6.73l-61.52-35.52a8.6,8.6,0,0,0-7.78,0l-61.52,35.52a8.58,8.58,0,0,0-3.89,6.73v3.67a8.6,8.6,0,0,0,3.89,6.74l61.52,35.5A8.6,8.6,0,0,0,344.85,359.77Z" style="fill:#fff;opacity:0.7000000000000001"></path><path d="M343.71,360.26a6.12,6.12,0,0,0,1.14-.49l61.52-35.55a8.6,8.6,0,0,0,3.89-6.73v-3.63a8.74,8.74,0,0,0-3.16-6.22c1.38,1.24,1.14,2.9-.73,4L345.14,347Z" style="fill:#BA68C8;opacity:0.30000000000000004"></path><path d="M271.66,313.86v3.67a8.58,8.58,0,0,0,3.89,6.74l61.52,35.5a8.64,8.64,0,0,0,6.64.48L345.14,347l-.29.17a8.6,8.6,0,0,1-7.78,0l-61.52-35.53c-1.87-1.07-2.12-2.74-.73-4A8.71,8.71,0,0,0,271.66,313.86Z" style="opacity:0.15"></path><path d="M323,284.24l61.53,35.52a8.15,8.15,0,0,0,4.55.9c.23,0,.46,0,.69-.07l.14,0,.41-.08h.05c.2,0,.41-.1.61-.16a6,6,0,0,0,1.32-.56l3.17-1.83a11,11,0,0,0,4.68-6.66l9.14-50.37a5.23,5.23,0,0,0,.09-1c0-.13,0-.25,0-.38a7.08,7.08,0,0,0-2.48-4.85l-.27-.2a3.54,3.54,0,0,0-.41-.26l-61.52-35.53a8.66,8.66,0,0,0-7.78,0l-3.16,1.83a8.38,8.38,0,0,0-1.87,1.52,3.38,3.38,0,0,0-.31.35,10.67,10.67,0,0,0-1.14,1.53,26.71,26.71,0,0,0-.39.66c-.09.16-.16.3-.24.46s-.15.3-.21.46-.11.26-.15.39a1.34,1.34,0,0,0-.07.18c0,.11-.08.23-.11.34a3.74,3.74,0,0,0-.12.45c0,.11,0,.22-.08.32l-9.14,50.38A6.83,6.83,0,0,0,323,284.24Z" style="fill:#BA68C8"></path><path d="M323,284.24l61.53,35.52a8.15,8.15,0,0,0,4.55.9c.23,0,.46,0,.69-.07l.14,0,.41-.08h.05c.2,0,.41-.1.61-.16a6,6,0,0,0,1.32-.56l3.17-1.83a11,11,0,0,0,4.68-6.66l9.14-50.37a5.23,5.23,0,0,0,.09-1c0-.13,0-.25,0-.38a7.08,7.08,0,0,0-2.48-4.85l-.27-.2a3.54,3.54,0,0,0-.41-.26l-61.52-35.53a8.66,8.66,0,0,0-7.78,0l-3.16,1.83a8.38,8.38,0,0,0-1.87,1.52,3.38,3.38,0,0,0-.31.35,10.67,10.67,0,0,0-1.14,1.53,26.71,26.71,0,0,0-.39.66c-.09.16-.16.3-.24.46s-.15.3-.21.46-.11.26-.15.39a1.34,1.34,0,0,0-.07.18c0,.11-.08.23-.11.34a3.74,3.74,0,0,0-.12.45c0,.11,0,.22-.08.32l-9.14,50.38A6.83,6.83,0,0,0,323,284.24Z" style="fill:#fff;opacity:0.7000000000000001"></path><path d="M398.31,267.22l-9.14,50.37a3,3,0,0,1-4.68,2.17L323,284.24a6.85,6.85,0,0,1-3.09-6.66L329,227.21a3,3,0,0,1,4.68-2.18l61.53,35.52A6.86,6.86,0,0,1,398.31,267.22Z" style="fill:#BA68C8;opacity:0.2"></path><path d="M386.07,320.39a9.21,9.21,0,0,0,3,.27c.23,0,.46,0,.69-.07l.55-.1h.05c.2,0,.41-.1.61-.16a6,6,0,0,0,1.32-.56l3.17-1.83a11,11,0,0,0,4.68-6.66l9.14-50.37a5.23,5.23,0,0,0,.09-1c0-.13,0-.25,0-.38a7,7,0,0,0-.42-1.91l-11,6.24a6.15,6.15,0,0,1,.39,3.34l-9.14,50.37a2.9,2.9,0,0,1-3.08,2.7A.3.3,0,0,1,386.07,320.39Z" style="fill:#BA68C8;opacity:0.30000000000000004"></path><g id="freepik--character--inject-64"><path d="M251.64,389.59a49.89,49.89,0,0,0,10.94-12.73,73.35,73.35,0,0,0,8-17.15c4.12-13.61,12-41.51,14-46.08,2.84-6.52,22.81-18.89,32.71-25.85a232.5,232.5,0,0,1,23.32-14.3l21.26-4.82c1.74,7.23,3.16,12.84,1,20.37s-8.5,13.13-18.47,19.52c-8.25,5.3-32.44,13.28-34.92,14.5s-5.11,1.19-5.7,6.07-2.15,6.91-6.59,13.4c-5.69,8.32-14,19.32-17.15,28a14.05,14.05,0,0,0,.06,5.88c1.92,7.37-4.45,7.87-8.26,12.65-2.07,2.6-3.34,5.34-6.3,7.13a21,21,0,0,1-8.84,2.82c-2.81.27-7.25-.41-9-2.2C244.91,394,249,391.7,251.64,389.59Z" style="fill:#ffa8a7"></path><path d="M339.19,273.72a327.18,327.18,0,0,0-30.05,19.14c-17.7,12.49-22.4,15.79-24.69,19.86s-11.2,37.47-11.2,37.47,3.29,7.28,14.26,7.16c0,0,9.08-12.58,11.27-15.68s5.23-7.42,5.74-11.69,1.56-4.85,15.31-9.72,33.49-12.59,41-24.81,5.56-21.74,5.56-21.74Z" style="fill:#BA68C8"></path><path d="M339.19,273.72a327.18,327.18,0,0,0-30.05,19.14c-17.7,12.49-22.4,15.79-24.69,19.86s-11.2,37.47-11.2,37.47,3.29,7.28,14.26,7.16c0,0,9.08-12.58,11.27-15.68s5.23-7.42,5.74-11.69,1.56-4.85,15.31-9.72,33.49-12.59,41-24.81,5.56-21.74,5.56-21.74Z" style="opacity:0.5"></path><path d="M302.68,328.2c-.1-6.11,7.06-10.85,13.1-15.07,1.41-1,1.33-1,27.33-18.86-2.77-4.56-4.47-16-4.47-16L364,282a27.06,27.06,0,0,1-1.06,7c-2.13,7.53-8.5,13.13-18.47,19.52-4.55,2.92-13.72,7.15-21.45,10.57-1.08.4-2.14.78-3.17,1.14-13.75,4.87-14.8,5.46-15.31,9.72s-3.55,8.59-5.74,11.69c-.31.44-.79,1.07-1.38,1.81h0C301.2,336.63,302.74,331.7,302.68,328.2Z" style="opacity:0.1"></path><path d="M272.35,401.52a56.38,56.38,0,0,0,11-12.72A70.2,70.2,0,0,0,291.09,372c4.27-13.39,12.88-40.17,14.86-44.73,3.78-8.69,32.7-26.29,32.7-26.29-2.41-3.51-7.53-12.92-8.13-16.8l49-1.22c.36,9.72-.51,17-3.06,22.71-3.45,7.71-6,12.75-16.39,18.12-8.7,4.51-29,10.8-31.51,12s-5.1,1.18-5.69,6.06-1.82,8.14-6.26,14.62c-5.69,8.32-12.56,17.59-15.76,26.3a14.15,14.15,0,0,0,.25,5.92c1.92,7.37-4.6,8-8.41,12.8-2.07,2.6-3.34,5.34-6.3,7.13a21.16,21.16,0,0,1-8.85,2.82c-2.8.26-7.16-.34-9.3-2.44C265.41,406.23,270.15,403.38,272.35,401.52Z" style="fill:#ffa8a7"></path><path d="M379.52,282.94s3.87,25.1-9.69,36.3-42.57,16.11-44.18,21.14a50.79,50.79,0,0,1-6.75,14.68c-3.75,5.66-11.71,15.9-11.71,15.9s-9.58-.89-13.8-6.16c0,0,8.37-30.87,11.44-38.23S338.65,301,338.65,301s-5.8-6.08-8.39-17.65S379.52,282.94,379.52,282.94Z" style="fill:#BA68C8"></path><path d="M379.52,282.94s3.87,25.1-9.69,36.3-42.57,16.11-44.18,21.14a50.79,50.79,0,0,1-6.75,14.68c-3.75,5.66-11.71,15.9-11.71,15.9s-9.58-.89-13.8-6.16c0,0,8.37-30.87,11.44-38.23S338.65,301,338.65,301s-5.8-6.08-8.39-17.65S379.52,282.94,379.52,282.94Z" style="opacity:0.43"></path><path d="M301.1,388.7a13.66,13.66,0,0,1-.44-3.14v0c-.06,1.69-3.88,4.16-6.91,6.95s-8.56,9.22-11.58,10.26c-4.19,1.44-9.26-.35-7.17-3.68h0c-.85.83-1.73,1.65-2.65,2.42-2.2,1.86-6.94,4.71-4.11,7.49,2.14,2.1,6.5,2.7,9.3,2.44a21.16,21.16,0,0,0,8.85-2.82c3-1.79,4.23-4.53,6.3-7.13C296.5,396.71,303,396.07,301.1,388.7Z" style="fill:#37474f"></path><path d="M280.37,376.59c-.27-1.06-.56-3-.56-3h0c-.06,1.69-3.76,4.08-6.79,6.87s-8.56,9.21-11.57,10.25c-4.2,1.45-9.21-.12-7.11-3.45h0c-.86.83-1.8,1.41-2.72,2.19-2.19,1.86-6.94,4.71-4.11,7.48,2.14,2.1,6.5,2.71,9.31,2.45a21.12,21.12,0,0,0,8.84-2.82c3-1.79,4.23-4.54,6.3-7.14C275.77,384.6,282.29,384,280.37,376.59Z" style="fill:#37474f"></path><path d="M351.65,222c-5.5-1.06-10.06-.88-13.74,4.5S327.31,255,323.66,265c-1,2.76,10.34,14,14.95,6.89C347,259,351.65,222,351.65,222Z" style="fill:#f28f8f"></path><path d="M330.39,279.74l6.52-5.5,1.16-8.71-.39-5.94c-6-4.59-6.68-11-3.81-16.65a51.68,51.68,0,0,1,8.06-11.65c4-4.79,8.19-8.43,9.72-9.29l5.55,1.22,15.26,3.6,6.6,2.23c-3.63,4.46-4.91,12.49-3,19.8s5.7,8.31,5.7,8.31l.7,4.06a96.54,96.54,0,0,1-1,12.27c-.89,5.18-1.45,11.61-1.45,11.61s.77,9.94,0,12.71c-10.18,3-27.35,2.39-38.15-4.25C331.26,287,330.39,279.74,330.39,279.74Z" style="fill:#37474f"></path><path d="M314.55,267.84c-2.09-.52-3.32,1.87-3,5.74s2.89,11,8.79,8.91S314.55,267.84,314.55,267.84Z" style="fill:#f28f8f"></path><path d="M334.1,260.62c-.36-.93-1.44-1.73-3.24-2.24a20.54,20.54,0,0,0-14.16,1.92c-1.59,1-2.42,2-2.52,3h-.06c.19,6.42,2.32,13.6,5.12,17.34a.56.56,0,0,0,.05.08l0,.06h0a4.86,4.86,0,0,0,2.08,1.49,12,12,0,0,0,10.75-1.45,4.85,4.85,0,0,0,1.61-2h0a.14.14,0,0,0,0-.06.42.42,0,0,0,0-.1c1.7-4.36,1.83-11.84.31-18.07Z" style="fill:#f5f5f5"></path><path d="M330.86,258.38c4.15,1.17,4.52,3.93.84,6.16a20.5,20.5,0,0,1-14.17,1.92c-4.14-1.17-4.51-3.93-.83-6.16A20.54,20.54,0,0,1,330.86,258.38Z" style="fill:#fafafa"></path><path d="M329.64,259.64c3.31.68,3.55,2.48.54,4a20.27,20.27,0,0,1-11.42,1.55c-3.31-.69-3.55-2.49-.55-4A20.13,20.13,0,0,1,329.64,259.64Z" style="fill:#e6e6e6"></path><path d="M330,262.07a5.62,5.62,0,0,1,1.69.58,6,6,0,0,1-1.48,1,20.27,20.27,0,0,1-11.42,1.55,5.89,5.89,0,0,1-1.69-.59,5.93,5.93,0,0,1,1.47-1A20.21,20.21,0,0,1,330,262.07Z" style="fill:#37474f"></path><path d="M389.1,287.44c2.11-8.78,3.62-16.12,5.73-35.5,1.43-13.1-2-18.8-15.77-22.89-11,12.42-.7,26-.7,26l-3,24.21s-30.89-2.31-33.29-3.71c-2-1.15-4.27-7.93-6.59-7.82a38.08,38.08,0,0,1,0,4.52c.06.95-5,3.18-10,3s-10.07-3.71-8.9.79c.46,1.79,1.34,5.16,4.14,7.35s12.8,2.81,15.66,4c0,0,25.09,5.54,35.5,7.45C380.27,296.36,386.58,298,389.1,287.44Z" style="fill:#ffa8a7"></path><path d="M354.74,174.24c17.67-6.32,30,3.09,32.86,14.29,1.91,7.47-1,15.61-5.31,21.06a43.23,43.23,0,0,1-4.94,5.7c-1.78,1.61-3.51,3-4.7,3.1l.26-5a17.25,17.25,0,0,1-8.48,1.72l-4.55-.19c-10.81-.45-15.17-10.81-19.42-23.44C336.29,179.1,346.49,177.19,354.74,174.24Z" style="fill:#263238"></path><path d="M350.81,181.76c-2.66,1.39-7.1,7.15-7.12,20.77,0,11.29,3.53,14.94,5.36,15.86s4.64.82,8.19.42l-.06,5.61c-5.53,6.33,5.54,9.38,12.89,6.23,1.05-.46,2.4-1.71,2.43-2.61l.51-16.9a4.86,4.86,0,0,0,5.71-1.09c2.61-2.94,3.48-7.34,1.35-9.75s-5.81-1.61-7.61.78c0,0-4.68-.17-11.93-4.67S351.9,186.92,350.81,181.76Z" style="fill:#ffa8a7"></path><path d="M372.46,201.08v5.45h0a3.88,3.88,0,0,1-3.88-3.87v-6.51Z" style="fill:#263238"></path><path d="M345.83,195.74l3.36-1.23a1.72,1.72,0,0,0-2.24-1.1A1.89,1.89,0,0,0,345.83,195.74Z" style="fill:#263238"></path><path d="M357.34,209.4l-5.29,1a2.57,2.57,0,0,0,3,2.19A2.82,2.82,0,0,0,357.34,209.4Z" style="fill:#b16668"></path><polygon points="353.08 198.16 353.03 207.62 348.45 206.12 353.08 198.16" style="fill:#f28f8f"></polygon><path d="M357.24,218.81c3.73-.29,11.48-2.07,12.83-5a7.84,7.84,0,0,1-2.88,3.7c-2.39,1.83-10,3.76-10,3.76Z" style="fill:#f28f8f"></path><path d="M357,211.17a2.29,2.29,0,0,0-1.19-.6,2.26,2.26,0,0,0-2.56,1.65,2.53,2.53,0,0,0,1.84.35A2.74,2.74,0,0,0,357,211.17Z" style="fill:#f28f8f"></path><path d="M356.42,199.46a2.3,2.3,0,0,0,4.44.63,3.38,3.38,0,0,1-4.44-.63Z" style="fill:#263238"></path><path d="M345.23,198.71a2.31,2.31,0,0,0,4.47.34,3.35,3.35,0,0,1-2.29.68A3.44,3.44,0,0,1,345.23,198.71Z" style="fill:#263238"></path></g><path d="M427.1,347.35,412.54,281.2l-7.09,6.07,19,61.1a1.43,1.43,0,0,0,.59.65h0A1.4,1.4,0,0,0,427.1,347.35Z" style="fill:#37474f"></path><path d="M407.07,272.42,350.88,317a18.57,18.57,0,0,0-6.94,13l-6.66,69a1.12,1.12,0,0,0,.56,1.07h0a1.13,1.13,0,0,0,1.69-.79l11-64.91a18.55,18.55,0,0,1,8.37-12.6l47.93-30.3a15.51,15.51,0,0,0,1.35-25.25Z" style="fill:#455a64"></path><path d="M414.17,315.27h0c1.67,3.84.65,8.32-3,10.41l-57.35,33.11a4.49,4.49,0,0,1-6.66-4.62h0l-4.41,26h0a15.84,15.84,0,0,1,7.58-10.93l63.76-36.81a6.54,6.54,0,0,1,9.28,3.06h0Z" style="fill:#37474f"></path></g></g></g><g id="freepik--Plant--inject-64"><g id="freepik--Pot--inject-64"><path d="M411.61,384.71c-7.69-7.86-12.21-31.29-4.71-37.52h38.2c7.51,6.23,3,29.65-4.7,37.51l-.21.22-.26.25a8.37,8.37,0,0,1-.7.62l-.18.15-.59.44a8.68,8.68,0,0,1-1,.63c-6.33,3.66-16.6,3.66-22.93,0h0a9.9,9.9,0,0,1-1-.64c-.19-.13-.37-.27-.54-.41a2,2,0,0,1-.23-.18c-.24-.19-.46-.39-.67-.59l-.31-.3Z" style="fill:#BA68C8"></path><g style="opacity:0.5"><path d="M411.61,384.71c-7.69-7.86-12.21-31.29-4.71-37.52h38.2c7.51,6.23,3,29.65-4.7,37.51l-.21.22-.26.25a8.37,8.37,0,0,1-.7.62l-.18.15-.59.44a8.68,8.68,0,0,1-1,.63c-6.33,3.66-16.6,3.66-22.93,0h0a9.9,9.9,0,0,1-1-.64c-.19-.13-.37-.27-.54-.41a2,2,0,0,1-.23-.18c-.24-.19-.46-.39-.67-.59l-.31-.3Z" style="fill:#fff"></path></g><path d="M441.79,344.68c8.71,5,8.71,13.19,0,18.23s-22.85,5-31.57,0-8.71-13.2,0-18.23S433.07,339.65,441.79,344.68Z" style="fill:#BA68C8"></path><g style="opacity:0.7000000000000001"><path d="M441.79,344.68c8.71,5,8.71,13.19,0,18.23s-22.85,5-31.57,0-8.71-13.2,0-18.23S433.07,339.65,441.79,344.68Z" style="fill:#fff"></path></g><path d="M437.6,347.1c6.4,3.7,6.4,9.69,0,13.39s-16.77,3.69-23.18,0-6.4-9.69,0-13.39S431.19,343.41,437.6,347.1Z" style="fill:#BA68C8"></path><g style="opacity:0.2"><path d="M437.6,347.1c6.4,3.7,6.4,9.69,0,13.39s-16.77,3.69-23.18,0-6.4-9.69,0-13.39S431.19,343.41,437.6,347.1Z" style="fill:#fff"></path></g><path d="M414.42,353.45c6.4-3.69,16.77-3.69,23.17,0a10.69,10.69,0,0,1,3.84,3.52,10.69,10.69,0,0,1-3.84,3.52c-6.4,3.69-16.77,3.69-23.17,0a10.69,10.69,0,0,1-3.84-3.52A10.69,10.69,0,0,1,414.42,353.45Z" style="fill:#f5f5f5"></path><g id="freepik--Plants--inject-64"><path d="M421.54,339.05a10.23,10.23,0,0,1-.9-2.58,6.1,6.1,0,0,1,1.88-5.94c.7-.53,1.6-.92,1.89-1.74a2.63,2.63,0,0,0,0-1.42c-.32-1.84-.94-3.73-.43-5.52a6.17,6.17,0,0,1,3.43-3.67,18.36,18.36,0,0,1,5-1.31,8,8,0,0,0,2.64-.76c1-.55,1.29-1.52,1.91-2.38a16,16,0,0,1,2.42-2.59c1.8-1.6,4.05-2.93,6.54-2.82,5.19.23,5.05,4.7,3.55,8.09s-1.9,4.5,1.35,8,3.25,7.88-.62,10.32-6.39,2.76-4.86,7.45c1.37,4.19,2.22,7.77-1.65,12.24a12.66,12.66,0,0,1-10.21,4.79,17.09,17.09,0,0,1-5-1.17c-1.18-.59-.39-1.5-.79-2.66l-2.56-7.5a56.42,56.42,0,0,0-2-5.91C422.61,341,422,340,421.54,339.05Z" style="fill:#BA68C8"></path><g style="opacity:0.25"><path d="M421.54,339.05a10.23,10.23,0,0,1-.9-2.58,6.1,6.1,0,0,1,1.88-5.94c.7-.53,1.6-.92,1.89-1.74a2.63,2.63,0,0,0,0-1.42c-.32-1.84-.94-3.73-.43-5.52a6.17,6.17,0,0,1,3.43-3.67,18.36,18.36,0,0,1,5-1.31,8,8,0,0,0,2.64-.76c1-.55,1.29-1.52,1.91-2.38a16,16,0,0,1,2.42-2.59c1.8-1.6,4.05-2.93,6.54-2.82,5.19.23,5.05,4.7,3.55,8.09s-1.9,4.5,1.35,8,3.25,7.88-.62,10.32-6.39,2.76-4.86,7.45c1.37,4.19,2.22,7.77-1.65,12.24a12.66,12.66,0,0,1-10.21,4.79,17.09,17.09,0,0,1-5-1.17c-1.18-.59-.39-1.5-.79-2.66l-2.56-7.5a56.42,56.42,0,0,0-2-5.91C422.61,341,422,340,421.54,339.05Z"></path></g><path d="M428.61,358.05a.37.37,0,0,0,.25-.37c-.21-25.66,13.93-41,14.07-41.14a.39.39,0,0,0,0-.55.38.38,0,0,0-.54,0c-.15.15-14.5,15.68-14.28,41.68a.38.38,0,0,0,.39.38Z" style="fill:#fff"></path><path d="M432.72,334.18l.08,0c4.6-2.9,12.82-5.06,12.9-5.08a.39.39,0,0,0-.19-.75c-.34.09-8.41,2.21-13.11,5.17a.39.39,0,0,0,.32.7Z" style="fill:#fff"></path><path d="M434.15,330.66h0a.39.39,0,0,0,.21-.5,30,30,0,0,0-4.25-7.15.38.38,0,0,0-.58.5,30,30,0,0,1,4.12,6.94A.39.39,0,0,0,434.15,330.66Z" style="fill:#fff"></path><path d="M425,360.83a21.59,21.59,0,0,1-11.27.42c-6.46-1.4-10.42-7.44-10.42-7.44s7-2.8,11.07-3.08a36.13,36.13,0,0,0-12.24.27s-3.75-1.4-3-7.72c0,0,3.52-2.59,11.63-1.58A25.85,25.85,0,0,0,399.55,338c-.56,0,.19-8.23.87-11.9s2.11-4.6,5-4.29,11.44,3.78,12.53,5.89,0,7.51,0,7.51a12.34,12.34,0,0,0,2.38-7.06,19.33,19.33,0,0,1,5,2.72,11.58,11.58,0,0,1,3.1,3.88c-.41,2.89-1.77,7.3-3.67,9.76a13.16,13.16,0,0,0,5.27-7.88,17.88,17.88,0,0,1,3.41,10.05C433.44,353.09,430.57,357.89,425,360.83Z" style="fill:#BA68C8"></path><path d="M425,360.83a21.59,21.59,0,0,1-11.27.42c-6.46-1.4-10.42-7.44-10.42-7.44s7-2.8,11.07-3.08a36.13,36.13,0,0,0-12.24.27s-3.75-1.4-3-7.72c0,0,3.52-2.59,11.63-1.58A25.85,25.85,0,0,0,399.55,338c-.56,0,.19-8.23.87-11.9s2.11-4.6,5-4.29,11.44,3.78,12.53,5.89,0,7.51,0,7.51a12.34,12.34,0,0,0,2.38-7.06,19.33,19.33,0,0,1,5,2.72,11.58,11.58,0,0,1,3.1,3.88c-.41,2.89-1.77,7.3-3.67,9.76a13.16,13.16,0,0,0,5.27-7.88,17.88,17.88,0,0,1,3.41,10.05C433.44,353.09,430.57,357.89,425,360.83Z" style="opacity:0.1"></path><path d="M425.86,360.25a.37.37,0,0,1-.24-.31c-1-12.25-14.68-31.38-20.74-35.22a.38.38,0,0,1-.11-.52.36.36,0,0,1,.5-.11c6.16,3.9,20.09,23.34,21.08,35.79a.37.37,0,0,1-.33.4A.41.41,0,0,1,425.86,360.25Z" style="fill:#fff"></path></g></g></g><g id="freepik--speech-bubble--inject-64"><g id="freepik--speech-bubbles--inject-64"><g id="freepik--speech-bubble--inject-64"><path d="M402.46,204.57a.88.88,0,0,1,.4-.1H410l3,1.71-1.7,11.19-3-1.71-2.56-2.95V220l-2-.73-8.69-9.33a.78.78,0,0,1,.2-1.19Z" style="fill:#BA68C8"></path><path d="M405.76,220l-2-.73-8.69-9.33a.78.78,0,0,1,.59-1.29h8.1l2,1.71Z" style="fill:#BA68C8"></path><path d="M405.76,220l-2-.73-8.69-9.33a.78.78,0,0,1,.59-1.29h8.1l2,1.71Z" style="opacity:0.2"></path><path d="M403.74,199.85a7.56,7.56,0,0,1,3.41-5.91h0a7.52,7.52,0,0,1,6.82,0l32,18.33a7.55,7.55,0,0,1,3.42,5.91v26.34a7.55,7.55,0,0,1-3.42,5.91h0a7.54,7.54,0,0,1-6.83,0l-32.3-18.56c-3.07-1.75-3.09-3.51-3.09-5.68Z" style="fill:#BA68C8"></path><path d="M403.74,199.85a7.56,7.56,0,0,1,3.41-5.91h0a7.52,7.52,0,0,1,6.82,0l32,18.33a7.55,7.55,0,0,1,3.42,5.91v26.34a7.55,7.55,0,0,1-3.42,5.91h0a7.54,7.54,0,0,1-6.83,0l-32.3-18.56c-3.07-1.75-3.09-3.51-3.09-5.68Z" style="opacity:0.2"></path><path d="M449.37,244.53a7.55,7.55,0,0,1-3.42,5.91h0a7.64,7.64,0,0,1-6.25.29c1.61.61,2.83-.31,2.83-2.26V222.13a6.93,6.93,0,0,0-1-3.36l6.83-3.94a7,7,0,0,1,1,3.36Z" style="opacity:0.2"></path><path d="M403.85,198.89c.4-1.45,1.72-1.92,3.3-1l32,18.34a6.83,6.83,0,0,1,2.41,2.55l6.82-3.93a6.83,6.83,0,0,0-2.41-2.55L414,194a7.6,7.6,0,0,0-6.83,0h0A7.49,7.49,0,0,0,403.85,198.89Z" style="fill:#BA68C8"></path></g><path d="M416.31,220.89c0,1.61-1.13,2.26-2.53,1.46a5.59,5.59,0,0,1-2.53-4.38c0-1.61,1.13-2.26,2.53-1.46A5.59,5.59,0,0,1,416.31,220.89Z" style="fill:#fafafa"></path><ellipse cx="423.14" cy="224.83" rx="2.06" ry="3.57" transform="translate(-55.73 241.69) rotate(-30)" style="fill:#fafafa"></ellipse><path d="M435,231.7c0,1.61-1.13,2.26-2.53,1.46a5.59,5.59,0,0,1-2.53-4.38c0-1.61,1.13-2.27,2.53-1.46A5.59,5.59,0,0,1,435,231.7Z" style="fill:#fafafa"></path></g></g></svg>